<?xml version="1.0" standalone="no"?><!DOCTYPE svg PUBLIC "-//W3C//DTD SVG 1.1//EN" "http://www.w3.org/Graphics/SVG/1.1/DTD/svg11.dtd"><svg t="1589635646885" class="icon" viewBox="0 0 1024 1024" version="1.1" xmlns="http://www.w3.org/2000/svg" p-id="2852" xmlns:xlink="http://www.w3.org/1999/xlink" width="200" height="200"><defs><style type="text/css"></style></defs><path d="M548.571429 146.285714q0-14.857143-10.857143-25.714285t-25.714286-10.857143-25.714286 10.857143-10.857143 25.714285 10.857143 25.714286 25.714286 10.857143 25.714286-10.857143 10.857143-25.714286z m475.428571 530.285715v201.142857q0 12.571429-11.428571 17.142857-4.571429 1.142857-6.857143 1.142857-7.428571 0-13.142857-5.142857l-53.142858-53.142857q-68 81.714286-182 129.428571T512 1014.857143t-245.428571-47.714286T84.571429 837.714286l-53.142858 53.142857q-5.142857 5.142857-13.142857 5.142857-2.285714 0-6.857143-1.142857-11.428571-4.571429-11.428571-17.142857v-201.142857q0-8 5.142857-13.142858t13.142857-5.142857h201.142857q12.571429 0 17.142858 11.428572 4.571429 10.857143-4 20l-57.142858 57.142857q38.285714 52 108.285715 87.714286T438.857143 881.714286V512H329.142857q-14.857143 0-25.714286-10.857143t-10.857142-25.714286V402.285714q0-14.857143 10.857142-25.714285t25.714286-10.857143h109.714286V272.571429q-33.142857-19.428571-53.142857-52.857143T365.714286 146.285714q0-60.571429 42.857143-103.428571T512 0t103.428571 42.857143 42.857143 103.428571q0 40-20 73.428572t-53.142857 52.857143v93.142857h109.714286q14.857143 0 25.714286 10.857143t10.857142 25.714285v73.142857q0 14.857143-10.857142 25.714286t-25.714286 10.857143h-109.714286v369.714286q85.142857-11.428571 155.142857-47.142857T848.571429 746.857143l-57.142858-57.142857q-8.571429-9.142857-4-20 4.571429-11.428571 17.142858-11.428572h201.142857q8 0 13.142857 5.142857t5.142857 13.142858z" p-id="2853"></path></svg>