<?xml version="1.0" standalone="no"?><!DOCTYPE svg PUBLIC "-//W3C//DTD SVG 1.1//EN" "http://www.w3.org/Graphics/SVG/1.1/DTD/svg11.dtd"><svg t="1589704554698" class="icon" viewBox="0 0 1024 1024" version="1.1" xmlns="http://www.w3.org/2000/svg" p-id="2101" xmlns:xlink="http://www.w3.org/1999/xlink" width="200" height="200"><defs><style type="text/css"></style></defs><path d="M621.714286 475.428571q0-14.857143-10.857143-25.714285t-25.714286-10.857143H438.857143q-14.857143 0-25.714286 10.857143t-10.857143 25.714285 10.857143 25.714286 25.714286 10.857143h146.285714q14.857143 0 25.714286-10.857143t10.857143-25.714286z m329.142857-109.714285v548.571428q0 14.857143-10.857143 25.714286t-25.714286 10.857143H109.714286q-14.857143 0-25.714286-10.857143t-10.857143-25.714286V365.714286q0-14.857143 10.857143-25.714286t25.714286-10.857143h804.571428q14.857143 0 25.714286 10.857143t10.857143 25.714286z m36.571428-256v146.285714q0 14.857143-10.857142 25.714286t-25.714286 10.857143H73.142857q-14.857143 0-25.714286-10.857143t-10.857142-25.714286V109.714286q0-14.857143 10.857142-25.714286t25.714286-10.857143h877.714286q14.857143 0 25.714286 10.857143t10.857142 25.714286z" p-id="2102"></path></svg>