
<?xml version="1.0" standalone="no"?><!DOCTYPE svg PUBLIC "-//W3C//DTD SVG 1.1//EN" "http://www.w3.org/Graphics/SVG/1.1/DTD/svg11.dtd"><svg t="1584715303708" class="icon" viewBox="0 0 1024 1024" version="1.1" xmlns="http://www.w3.org/2000/svg" p-id="4856" xmlns:xlink="http://www.w3.org/1999/xlink" width="200" height="200"><defs><style type="text/css"></style></defs><path d="M892.287596 610.253617v225.637414c0 15.377103-24.328432 27.813056-54.347351 27.813056H179.506103c-30.018919 0-54.347351-12.435953-54.347351-27.813056v-106.328994c0 39.226 31.777216 71.035185 71.003216 71.035184s71.003216-31.809185 71.003216-71.035184c0-39.194031-31.777216-71.003216-71.003216-71.003216s-71.003216 31.809185-71.003216 71.003216v-119.30842c0-15.377103 24.328432-27.813056 54.347351-27.813056h658.434142c30.018919 0 54.347351 12.435953 54.347351 27.813056z m-2.94115 119.30842c0-39.194031-31.777216-71.003216-71.003216-71.003216-39.226 0-71.003216 31.809185-71.003216 71.003216 0 39.226 31.777216 71.035185 71.003216 71.035184 39.226 0 71.003216-31.809185 71.003216-71.035184z m-155.529331 0c0-39.194031-31.809185-71.003216-71.003216-71.003216-39.226 0-71.035185 31.809185-71.035185 71.003216 0 39.226 31.809185 71.035185 71.035185 71.035184 39.194031 0 71.003216-31.809185 71.003216-71.035184z m-155.5613 0c0-39.194031-31.777216-71.003216-71.003216-71.003216s-71.003216 31.809185-71.003216 71.003216c0 39.226 31.777216 71.035185 71.003216 71.035184s71.003216-31.809185 71.003216-71.035184z m-155.529331 0c0-39.194031-31.809185-71.003216-71.003216-71.003216-39.226 0-71.035185 31.809185-71.035185 71.003216 0 39.226 31.809185 71.035185 71.035185 71.035184 39.194031 0 71.003216-31.809185 71.003216-71.035184z" fill="#FFB578" p-id="4857"></path><path d="M818.34323 658.558821c39.226 0 71.003216 31.809185 71.003216 71.003216 0 39.226-31.777216 71.035185-71.003216 71.035184-39.226 0-71.003216-31.809185-71.003216-71.035184 0-39.194031 31.777216-71.003216 71.003216-71.003216z" fill="#FF4893" p-id="4858"></path><path d="M798.714246 578.604277v3.836284H218.732103v-115.727889h0.863164c57.895913 0 57.895913 63.970029 115.823796 63.970029 57.895913 0 57.895913-63.970029 115.823795-63.970029 57.895913 0 57.895913 63.970029 115.791827 63.970029 57.927882 0 57.927882-63.970029 115.855765-63.970029 57.895913 0 57.895913 63.970029 115.823796 63.970029v47.921576z" fill="#FFB578" p-id="4859"></path><path d="M798.714246 408.273285v122.409416c-57.927882 0-57.927882-63.970029-115.823796-63.970029-57.927882 0-57.927882 63.970029-115.855765 63.970029-57.895913 0-57.895913-63.970029-115.791827-63.970029-57.927882 0-57.927882 63.970029-115.823795 63.970029-57.927882 0-57.927882-63.970029-115.823796-63.970029h-0.863164v-58.439387c0-15.377103 24.328432-27.845025 54.347351-27.845025H744.366895c30.018919 0 54.347351 12.467922 54.347351 27.845025z" fill="#5FCEFF" p-id="4860"></path><path d="M662.813899 658.558821c39.194031 0 71.003216 31.809185 71.003216 71.003216 0 39.226-31.809185 71.035185-71.003216 71.035184-39.226 0-71.035185-31.809185-71.035185-71.035184 0-39.194031 31.809185-71.003216 71.035185-71.003216z" fill="#42BC90" p-id="4861"></path><path d="M507.252599 658.558821c39.226 0 71.003216 31.809185 71.003216 71.003216 0 39.226-31.777216 71.035185-71.003216 71.035184s-71.003216-31.809185-71.003216-71.035184c0-39.194031 31.777216-71.003216 71.003216-71.003216zM538.038775 376.687884v3.740376h-58.631201v-124.135743c0-8.088165 3.29281-15.409072 8.599669-20.715932a29.2133 29.2133 0 0 1 20.715931-8.599669c16.176329 0 29.315601 13.139271 29.315601 29.315601v120.395367zM508.723174 75.667497c16.176329 0 29.315601 13.107302 29.315601 29.283632a29.315601 29.315601 0 0 1-50.031532 20.7479 29.232481 29.232481 0 0 1-8.599669-20.7479c0-8.088165 3.29281-15.409072 8.599669-20.715932a29.184527 29.184527 0 0 1 20.715931-8.5677z" fill="#FF4893" p-id="4862"></path><path d="M351.723268 658.558821c39.194031 0 71.003216 31.809185 71.003216 71.003216 0 39.226-31.809185 71.035185-71.003216 71.035184-39.226 0-71.035185-31.809185-71.035185-71.035184 0-39.194031 31.809185-71.003216 71.035185-71.003216z" fill="#42BC90" p-id="4863"></path><path d="M196.161968 658.558821c39.226 0 71.003216 31.809185 71.003216 71.003216 0 39.226-31.777216 71.035185-71.003216 71.035184s-71.003216-31.809185-71.003216-71.035184c0-39.194031 31.777216-71.003216 71.003216-71.003216z" fill="#FF4893" p-id="4864"></path><path d="M798.714246 600.982598a22.378321 22.378321 0 0 1-22.378321-22.378321v-167.760682c-3.356748-2.75573-14.318929-8.040211-31.96903-8.040211H273.079454c-17.646905 0-28.615479 5.281284-31.96903 8.040211v167.760682a22.378321 22.378321 0 1 1-44.756642 0v-170.330992c0-29.101408 32.266342-50.223346 76.725672-50.223346h471.287441c44.456133 0 76.725672 21.121938 76.725672 50.223346v170.330992a22.378321 22.378321 0 0 1-22.378321 22.378321z" fill="#4F46A3" p-id="4865"></path><path d="M837.940245 886.082408H179.506103c-44.45933 0-76.725672-21.109151-76.725672-50.191377v-225.637414c0-29.082227 32.266342-50.18818 76.725672-50.18818h658.434142c44.456133 0 76.725672 21.109151 76.725672 50.18818v225.637414c0 29.082227-32.266342 50.191377-76.725672 50.191377zM147.537073 833.307933c3.363142 2.752533 14.328519 8.017833 31.96903 8.017833h658.434142c17.640511 0 28.605888-5.265299 31.96903-8.017833v-220.471219c-3.363142-2.752533-14.328519-8.017833-31.96903-8.017832H179.506103c-17.640511 0-28.605888 5.262102-31.96903 8.014636v220.474415zM925.279635 967.603434H94.180762a22.378321 22.378321 0 1 1 0-44.756642h831.098873a22.378321 22.378321 0 1 1 0 44.756642zM538.038775 399.066205a22.378321 22.378321 0 0 1-22.378321-22.378321v-120.395367c0-3.823496-3.113784-6.93728-6.93728-6.93728-2.352921 0-3.960963 1.112522-4.894458 2.049215a6.80301 6.80301 0 0 0-2.042821 4.888065v120.395367a22.378321 22.378321 0 1 1-44.756642 0v-120.395367c0-13.788243 5.380388-26.764472 15.150123-36.537405a51.358247 51.358247 0 0 1 36.543798-15.156517c28.503587 0 51.693922 23.190334 51.693922 51.693922v120.395367a22.378321 22.378321 0 0 1-22.378321 22.378321zM508.723174 156.64505a51.457351 51.457351 0 0 1-36.492647-15.073398c-9.820886-9.824083-15.201274-22.8131-15.201274-36.620523 0-13.788243 5.380388-26.764472 15.150123-36.537405a51.332671 51.332671 0 0 1 36.543798-15.124548c28.503587 0 51.693922 23.177547 51.693922 51.661953 0 13.807424-5.380388 26.793244-15.146926 36.566176-9.836871 9.776129-22.793918 15.127745-36.546996 15.127745z m0-58.599232a6.777434 6.777434 0 0 0-4.891261 2.014049c-0.933496 0.933496-2.046018 2.538341-2.046018 4.891262 0 2.378496 1.112522 3.992932 2.049215 4.926427 0.7225 0.719303 2.39448 2.010852 4.888064 2.010852a7.001218 7.001218 0 0 0 4.942412-2.062002 6.809403 6.809403 0 0 0 1.994868-4.875277c0-3.807511-3.113784-6.90531-6.93728-6.905311z" fill="#4F46A3" p-id="4866"></path><path d="M196.161968 822.975542c-51.48932 0-93.381537-41.905005-93.381537-93.413505 0-51.48932 41.892217-93.381537 93.381537-93.381537s93.381537 41.892217 93.381537 93.381537c0 51.505304-41.892217 93.413506-93.381537 93.413505z m0-142.0384c-26.812425 0-48.624895 21.812469-48.624895 48.624895 0 26.831607 21.812469 48.656864 48.624895 48.656863s48.624895-21.825257 48.624895-48.656863c0-26.812425-21.812469-48.624895-48.624895-48.624895z" fill="#4F46A3" p-id="4867"></path><path d="M351.723268 822.975542c-51.508501 0-93.413506-41.905005-93.413506-93.413505 0-51.48932 41.905005-93.381537 93.413506-93.381537 51.48932 0 93.381537 41.892217 93.381537 93.381537 0 51.505304-41.892217 93.413506-93.381537 93.413505z m0-142.0384c-26.831607 0-48.656864 21.812469-48.656864 48.624895 0 26.831607 21.828454 48.656864 48.656864 48.656863 26.812425 0 48.624895-21.825257 48.624895-48.656863 0-26.812425-21.812469-48.624895-48.624895-48.624895z" fill="#4F46A3" p-id="4868"></path><path d="M507.252599 822.975542c-51.48932 0-93.381537-41.905005-93.381537-93.413505 0-51.48932 41.892217-93.381537 93.381537-93.381537s93.381537 41.892217 93.381537 93.381537c0 51.505304-41.892217 93.413506-93.381537 93.413505z m0-142.0384c-26.812425 0-48.624895 21.812469-48.624895 48.624895 0 26.831607 21.812469 48.656864 48.624895 48.656863s48.624895-21.825257 48.624895-48.656863c0-26.812425-21.812469-48.624895-48.624895-48.624895z" fill="#4F46A3" p-id="4869"></path><path d="M662.813899 822.975542c-51.505304 0-93.413506-41.905005-93.413506-93.413505 0-51.48932 41.905005-93.381537 93.413506-93.381537 51.48932 0 93.381537 41.892217 93.381537 93.381537 0 51.505304-41.88902 93.413506-93.381537 93.413505z m0-142.0384c-26.831607 0-48.656864 21.812469-48.656864 48.624895 0 26.831607 21.825257 48.656864 48.656864 48.656863 26.812425 0 48.624895-21.825257 48.624895-48.656863 0-26.812425-21.812469-48.624895-48.624895-48.624895z" fill="#4F46A3" p-id="4870"></path><path d="M818.34323 822.975542c-51.492517 0-93.384734-41.905005-93.384734-93.413505 0-51.48932 41.892217-93.381537 93.384734-93.381537 51.48932 0 93.381537 41.892217 93.381537 93.381537 0 51.505304-41.88902 93.413506-93.381537 93.413505z m0-142.0384c-26.815622 0-48.628092 21.812469-48.628092 48.624895 0 26.831607 21.812469 48.656864 48.628092 48.656863 26.812425 0 48.624895-21.825257 48.624895-48.656863 0-26.812425-21.812469-48.624895-48.624895-48.624895zM798.714246 553.061022c-38.896719 0-58.650382-21.818863-74.523006-39.350679-14.641816-16.176329-23.129593-24.61935-41.30079-24.61935-18.190378 0-26.687746 8.446218-41.34235 24.628941-15.872623 17.528619-35.626287 39.341088-74.516612 39.341088-38.877537 0-58.62161-21.815666-74.48784-39.347482-14.645013-16.179526-23.13279-24.622547-41.303986-24.622547-18.193575 0-26.687746 8.446218-41.34235 24.632138-15.86623 17.525422-35.613499 39.337891-74.481446 39.337891-38.896719 0-58.647186-21.818863-74.519809-39.350679-14.645013-16.176329-23.13279-24.61935-41.303987-24.61935a22.378321 22.378321 0 1 1 0-44.756642c38.871144 0 58.615217 21.812469 74.481446 39.337892 14.654603 16.18592 23.148775 24.632138 41.34235 24.632137 18.171197 0 26.658974-8.443021 41.303987-24.61935 15.872623-17.531816 35.626287-39.350679 74.519809-39.350679 38.877537 0 58.62161 21.815666 74.487839 39.347482 14.641816 16.179526 23.129593 24.622547 41.303987 24.622547 18.190378 0 26.687746-8.446218 41.34235-24.628941 15.872623-17.528619 35.626287-39.341088 74.516612-39.341088 38.867947 0 58.615217 21.812469 74.481446 39.337892 14.654603 16.18592 23.145578 24.632138 41.34235 24.632137a22.378321 22.378321 0 1 1 0 44.756642z" fill="#4F46A3" p-id="4871"></path></svg>