<svg t="1590131916896" class="icon" viewBox="0 0 1024 1024" version="1.1" xmlns="http://www.w3.org/2000/svg" p-id="7214" width="200" height="200"><path d="M173 341.2c-1.5-23.5 16.4-42.6 40-42.6h597.4c23.5 0 41.4 19.1 40 42.6L813 938.8c-1.5 23.5-21.8 42.6-45.3 42.6h-512c-23.6 0-43.9-19.1-45.3-42.6L173 341.2z" fill="#FFFFFF" p-id="7215"></path><path d="M170.3 426.7H853v426.6H170.3z" fill="#FFB095" p-id="7216"></path><path d="M210.3 938.8c1.5 23.5 21.8 42.6 45.3 42.6h512c23.5 0 43.9-19.1 45.3-42.6l37.3-597.5c1.5-23.5-16.4-42.6-40-42.6H213c-23.5 0-41.4 19.1-40 42.6l37.3 597.5z m-79.9-594.9c-3-48.1 34.4-87.9 82.6-87.9h597.4c48.2 0 85.6 39.8 82.6 87.9l-37.3 597.5c-2.9 46-41.8 82.6-87.9 82.6h-512c-46.1 0-85-36.6-87.9-82.6l-37.5-597.5z" fill="#666666" p-id="7217"></path><path d="M762 86l133.7-0.7h42.6V341.3H85v-256h42.7L261 86l44.5-67 12.7-19h387l12.6 19z" fill="#666666" p-id="7218"></path><path d="M739.2 128l-56.9-85.3H341L284.1 128H127.7v170.7h768V128z" fill="#FFEAD8" p-id="7219"></path><path d="M383.7 640a128 128 0 1 0 256 0 128 128 0 1 0-256 0Z" fill="#FFFFFF" p-id="7220"></path></svg>