<?xml version="1.0" standalone="no"?><!DOCTYPE svg PUBLIC "-//W3C//DTD SVG 1.1//EN" "http://www.w3.org/Graphics/SVG/1.1/DTD/svg11.dtd"><svg t="1589635602388" class="icon" viewBox="0 0 1156 1024" version="1.1" xmlns="http://www.w3.org/2000/svg" p-id="1985" xmlns:xlink="http://www.w3.org/1999/xlink" width="225.78125" height="200"><defs><style type="text/css"></style></defs><path d="M1012.973037 122.680889C922.168889 44.885333 795.003259 0 647.205926 0 262.011259 0 0 291.422815 0 291.422815l73.832296 114.877629s40.846222 3.356444 19.218963-64.312888c18.669037-34.569481 55.220148-81.133037 126.58726-134.874075v765.184c-30.767407 8.51437-71.433481 24.519111-43.70963 51.693038h212.091259c27.998815-27.45837-16.109037-43.984593-42.979555-51.693038V791.789037s145.417481 55.959704 302.165333 55.959704c137.737481 0 263.044741-40.173037 356.257185-112.734815 93.202963-72.144593 153.27763-179.873185 152.907852-302.999704 0.274963-120.888889-52.508444-231.831704-143.397926-309.333333zM900.570074 674.616889c-64.455111 62.388148-158.179556 101.840593-266.30637 101.764741-120.623407 0.056889-222.170074-22.840889-289.21363-55.201186V556.743111 147.095704C418.607407 95.857778 537.92237 64.284444 634.263704 64.474074c117.05837 0.085333 208.981333 43.444148 271.122963 109.255111 62.046815 66.199704 95.924148 154.130963 96.227555 256.341334-0.369778 99.602963-36.589037 181.636741-101.044148 244.54637z" fill="#5B5C5C" p-id="1986"></path></svg>