<?xml version="1.0" standalone="no"?><!DOCTYPE svg PUBLIC "-//W3C//DTD SVG 1.1//EN" "http://www.w3.org/Graphics/SVG/1.1/DTD/svg11.dtd"><svg t="1589637631164" class="icon" viewBox="0 0 1024 1024" version="1.1" xmlns="http://www.w3.org/2000/svg" p-id="24441" xmlns:xlink="http://www.w3.org/1999/xlink" width="200" height="200"><defs><style type="text/css"></style></defs><path d="M542 77.2c-0.6-0.8-1.4-1.4-1.8-2 0 0-0.2-0.2-0.2-0.2-7.2-6.8-17-11-27.8-11-11 0-20.8 4.2-27.8 11 0 0-0.2 0.2-0.2 0.2-0.6 0.6-1.2 1.2-1.8 2-12.2 12.6-27.6 28.8-44.8 48.2-34.8 39.4-77.2 92-117 153.6-66.8 103.6-125.8 232.2-128.2 366.2 0 2.6-0.2 5.4-0.2 8 0 39.4 7.8 77 21.8 111.6 8.2 20 18.4 38.8 30.4 56.4C301.4 904.8 400 960 512 960c176.8 0 320-137.4 320-306.8C832 397.4 621.6 158.4 542 77.2zM512 848c-31.6 0-61.4-7.4-87.8-20.2 131.8-28.8 236.8-129.4 271.6-259 10.4 24.2 16.4 51 16.4 79.2C712 758.4 622.4 848 512 848z" p-id="24442"></path></svg>