<?xml version="1.0" standalone="no"?><!DOCTYPE svg PUBLIC "-//W3C//DTD SVG 1.1//EN" "http://www.w3.org/Graphics/SVG/1.1/DTD/svg11.dtd"><svg t="1589637551292" class="icon" viewBox="0 0 1024 1024" version="1.1" xmlns="http://www.w3.org/2000/svg" p-id="18287" xmlns:xlink="http://www.w3.org/1999/xlink" width="200" height="200"><defs><style type="text/css"></style></defs><path d="M539.494719 463.50518c0 0-35.859165-296.041955-5.983994-370.653083 15.258865-38.213083 63.374019-107.882136 157.588328-89.958313 85.549998 16.255984 74.311608 109.460375 74.311608 109.460375s65.306817-30.206691 128.109957 6.652154c41.77276 24.578536 151.944814 231.198497-82.321841 280.74085C594.291466 445.569837 539.494719 463.50518 539.494719 463.50518zM539.494719 484.00564c0 0 272.688378-44.258517 378.231956-9.97503 106.168218 34.597087 137.356668 158.806887 69.159613 235.442973-26.780134 30.114531-106.984857 23.386857-106.984857 23.386857s23.892457 83.60184-22.865898 132.383873c-46.833875 48.766673-137.846907 57.818824-185.187662 1.012479C592.221708 770.684404 539.494719 504.4741 539.494719 484.00564zM508.604509 461.020702c0 0 3.304957-330.891201-125.429639-406.023289-61.733061-36.053725-168.706398-13.116147-215.003953 46.282195-32.300769 41.50268-36.931804 92.890791-25.855975 121.948043 0 0-120.668044-6.356474-140.125305 107.999896-20.64638 121.427083 111.244693 156.08177 122.186122 157.242729 73.15065 7.993592 156.30705-18.548462 260.792069-27.450854C444.86313 455.899427 508.604509 461.020702 508.604509 461.020702zM521.601616 485.016839c0 0-198.760769-15.170545-357.031336 112.271252-83.632559 67.284415-78.375605 170.105436-47.175635 231.140898 22.926058 44.790997 82.6508 69.681853 149.325936 61.702341 0 0 9.93023 115.457169 115.441809 132.399233 72.42233 11.609589 181.269586-50.882511 191.169096-130.420354C591.209229 747.787786 508.619869 550.710216 521.601616 485.016839z" p-id="18288"></path></svg>