<?xml version="1.0" standalone="no"?><!DOCTYPE svg PUBLIC "-//W3C//DTD SVG 1.1//EN" "http://www.w3.org/Graphics/SVG/1.1/DTD/svg11.dtd"><svg t="1589635584798" class="icon" viewBox="0 0 1024 1024" version="1.1" xmlns="http://www.w3.org/2000/svg" p-id="1487" xmlns:xlink="http://www.w3.org/1999/xlink" width="200" height="200"><defs><style type="text/css"></style></defs><path d="M402.285714 576v-128a8.996571 8.996571 0 0 0-9.142857-9.142857h-54.857143a8.996571 8.996571 0 0 0-9.142857 9.142857v128c0 5.156571 3.986286 9.142857 9.142857 9.142857h54.857143c5.156571 0 9.142857-3.986286 9.142857-9.142857z m292.571429 0v-128a8.996571 8.996571 0 0 0-9.142857-9.142857h-54.857143a8.996571 8.996571 0 0 0-9.142857 9.142857v128c0 5.156571 3.986286 9.142857 9.142857 9.142857h54.857143c5.156571 0 9.142857-3.986286 9.142857-9.142857z m292.571428 18.285714V1024H621.714286v-182.857143a109.750857 109.750857 0 0 0-219.428572 0v182.857143H36.571429V594.285714c0-5.156571 3.986286-9.142857 9.142857-9.142857h54.857143c5.156571 0 9.142857 3.986286 9.142857 9.142857V658.285714h73.142857V301.714286c0-5.156571 3.986286-9.142857 9.142857-9.142857h54.857143c5.156571 0 9.142857 3.986286 9.142857 9.142857V365.714286h73.142857V301.714286c0-5.156571 3.986286-9.142857 9.142857-9.142857h54.857143c5.156571 0 9.142857 3.986286 9.142857 9.142857V365.714286h73.142857V301.714286c0-11.995429 16.018286-9.142857 23.442286-9.142857V69.156571a32.292571 32.292571 0 0 1-18.285714-28.562285c0-17.152 14.299429-31.414857 31.414857-31.414857s31.414857 14.299429 31.414857 31.414857a32.219429 32.219429 0 0 1-18.285714 28.562285v9.728a219.062857 219.062857 0 0 1 47.433143-5.705142c23.442286 0 45.714286 8.557714 65.133714 8.557714 17.700571 0 37.705143-8.557714 48.018286-8.557714 5.156571 0 9.142857 3.986286 9.142857 9.142857v119.990857c0 13.714286-46.299429 16.018286-55.442286 16.018286-21.138286 0-41.142857-8.557714-62.866286-8.557715-17.152 0-34.852571 2.852571-51.419428 6.838857v75.995429c7.424 0 23.442286-2.852571 23.442286 9.142857v64h73.142857v-64c0-5.156571 3.986286-9.142857 9.142857-9.142857h54.857143c5.156571 0 9.142857 3.986286 9.142857 9.142857v64h73.142857v-64c0-5.156571 3.986286-9.142857 9.142857-9.142857h54.857143c5.156571 0 9.142857 3.986286 9.142857 9.142857v356.571429h73.142857v-64c0-5.156571 3.986286-9.142857 9.142857-9.142857h54.857143c5.156571 0 9.142857 3.986286 9.142857 9.142857z" fill="" p-id="1488"></path></svg>