
<?xml version="1.0" standalone="no"?><!DOCTYPE svg PUBLIC "-//W3C//DTD SVG 1.1//EN" "http://www.w3.org/Graphics/SVG/1.1/DTD/svg11.dtd"><svg t="1584715127077" class="icon" viewBox="0 0 1024 1024" version="1.1" xmlns="http://www.w3.org/2000/svg" p-id="1924" xmlns:xlink="http://www.w3.org/1999/xlink" width="200" height="200"><defs><style type="text/css"></style></defs><path d="M512.47 873.27a18.46 18.46 0 0 1-9.06-2.38c-12.81-7.2-313.61-179.82-313.61-469.8 0-177.91 144.75-322.66 322.66-322.66s322.67 144.75 322.67 322.66c0 290-300.79 462.6-313.61 469.8a18.46 18.46 0 0 1-9.05 2.38z m0-757.89c-157.54 0-285.71 128.17-285.71 285.71 0 241.56 236 401.23 285.7 432.13 49.62-30.94 285.72-190.92 285.72-432.13 0-157.54-128.18-285.71-285.71-285.71z" fill="#0897EA" p-id="1925"></path><path d="M512.89 509a104.7 104.7 0 1 1 104.7-104.7A104.82 104.82 0 0 1 512.89 509z m0-172.45a67.75 67.75 0 1 0 67.75 67.75 67.83 67.83 0 0 0-67.75-67.79zM508.15 945.57a18.37 18.37 0 0 1-5.71-0.91l-111.22-36.17H154a18.48 18.48 0 0 1 0-37h240.16a18.43 18.43 0 0 1 5.71 0.91l108.49 35.29 117.94-35.37a18.53 18.53 0 0 1 5.32-0.78H870a18.48 18.48 0 1 1 0 37H634.34l-120.87 36.3a18.39 18.39 0 0 1-5.32 0.73z" fill="#FF4056" p-id="1926"></path></svg>