<?xml version="1.0" standalone="no"?><!DOCTYPE svg PUBLIC "-//W3C//DTD SVG 1.1//EN" "http://www.w3.org/Graphics/SVG/1.1/DTD/svg11.dtd"><svg t="1589635577116" class="icon" viewBox="0 0 1024 1024" version="1.1" xmlns="http://www.w3.org/2000/svg" p-id="1364" xmlns:xlink="http://www.w3.org/1999/xlink" width="200" height="200"><defs><style type="text/css"></style></defs><path d="M731.428571 402.285714q0-14.857143-10.857142-25.714285t-25.714286-10.857143q-98.285714 0-181.714286 28.285714t-148.285714 76.571429T230.285714 596q-10.857143 12-10.857143 25.714286 0 14.857143 10.857143 25.714285t25.714286 10.857143q13.714286 0 25.714286-10.857143 15.428571-13.714286 42.285714-40.571428t38.285714-37.714286q78.285714-70.857143 153.428572-100.571428t179.142857-29.714286q14.857143 0 25.714286-10.857143t10.857142-25.714286z m292.571429-113.142857q0 54.285714-11.428571 110.285714-26.285714 128-105.428572 218.857143T702.857143 771.428571q-122.285714 61.714286-250.285714 61.714286-84.571429 0-163.428572-26.857143-8.571429-2.857143-50.285714-24t-54.857143-21.142857q-9.142857 0-22.571429 18.285714t-25.714285 40-30 40-34.285715 18.285715q-24.571429 0-36.285714-10T9.142857 833.714286q-1.142857-2.285714-3.428571-6.285715t-3.142857-5.714285-1.714286-5.428572T0 808.571429q0-20 17.714286-42t38.857143-37.428572 38.857142-32 17.714286-27.428571q0-2.285714-8-21.714286t-9.142857-25.142857q-5.142857-29.142857-5.142857-59.428572 0-65.714286 24.857143-125.714285t68-105.428572 97.428571-79.428571T397.714286 198.285714q31.428571-10.285714 82.857143-14.571428t102.571428-5.142857 102-3.428572 93.428572-13.714286T843.428571 129.142857l16.857143-16.857143 16.857143-16 15.428572-11.428571 20.857142-9.142857 24.857143-2.571429q22.285714 0 40.285715 26.285714t27.142857 64 13.714285 70.857143 4.571429 54.857143z" p-id="1365"></path></svg>