<?xml version="1.0" standalone="no"?><!DOCTYPE svg PUBLIC "-//W3C//DTD SVG 1.1//EN" "http://www.w3.org/Graphics/SVG/1.1/DTD/svg11.dtd"><svg t="1589635653801" class="icon" viewBox="0 0 1024 1024" version="1.1" xmlns="http://www.w3.org/2000/svg" p-id="2975" xmlns:xlink="http://www.w3.org/1999/xlink" width="200" height="200"><defs><style type="text/css"></style></defs><path d="M868.571429 694.857143q0-22.857143-16-38.857143l-118.857143-118.857143q-16-16-38.857143-16-24 0-41.142857 18.285714 1.714286 1.714286 10.857143 10.571429t12.285714 12.285714 8.571428 10.857143 7.428572 14.571429 2 15.714285q0 22.857143-16 38.857143t-38.857143 16q-8.571429 0-15.714286-2t-14.571428-7.428571-10.857143-8.571429-12.285714-12.285714-10.571429-10.857143q-18.857143 17.714286-18.857143 41.714286 0 22.857143 16 38.857143l117.714286 118.285714q15.428571 15.428571 38.857143 15.428571 22.857143 0 38.857143-14.857142l84-83.428572q16-16 16-38.285714zM466.857143 292q0-22.857143-16-38.857143L333.142857 134.857143q-16-16-38.857143-16-22.285714 0-38.857143 15.428571L171.428571 217.714286q-16 16-16 38.285714 0 22.857143 16 38.857143l118.857143 118.857143q15.428571 15.428571 38.857143 15.428571 24 0 41.142857-17.714286-1.714286-1.714286-10.857143-10.571428T347.142857 388.571429t-8.571428-10.857143-7.428572-14.571429T329.142857 347.428571q0-22.857143 16-38.857142t38.857143-16q8.571429 0 15.714286 2t14.571428 7.428571 10.857143 8.571429 12.285714 12.285714 10.571429 10.857143q18.857143-17.714286 18.857143-41.714286z m511.428571 402.857143q0 68.571429-48.571428 116l-84 83.428571q-47.428571 47.428571-116 47.428572-69.142857 0-116.571429-48.571429l-117.714286-118.285714q-47.428571-47.428571-47.428571-116 0-70.285714 50.285714-119.428572l-50.285714-50.285714q-49.142857 50.285714-118.857143 50.285714-68.571429 0-116.571428-48L93.714286 372.571429q-48-48-48-116.571429t48.571428-116L178.285714 56.571429q47.428571-47.428571 116-47.428572 69.142857 0 116.571429 48.571429l117.714286 118.285714q47.428571 47.428571 47.428571 116 0 70.285714-50.285714 119.428571l50.285714 50.285715q49.142857-50.285714 118.857143-50.285715 68.571429 0 116.571428 48l118.857143 118.857143q48 48 48 116.571429z" p-id="2976"></path></svg>