
<?xml version="1.0" standalone="no"?><!DOCTYPE svg PUBLIC "-//W3C//DTD SVG 1.1//EN" "http://www.w3.org/Graphics/SVG/1.1/DTD/svg11.dtd"><svg t="1583675605904" class="icon" viewBox="0 0 1024 1024" version="1.1" xmlns="http://www.w3.org/2000/svg" p-id="6192" xmlns:xlink="http://www.w3.org/1999/xlink" width="200" height="200"><defs>
<style type="text/css">
</style></defs><path d="M809.6 416.64h-53.76V308.48c0-135.68-108.096-243.84-243.2-243.84-135.04 0-243.2 108.16-243.2 243.84v108.16h-53.76c-29.44 0-53.76 24.32-53.76 53.76v433.28c0 29.44 24.32 53.76 53.76 53.76h593.92c30.08 0 54.4-24.32 54.4-53.76V470.4c0-29.44-24.32-53.76-54.4-53.76z m-135.04 0H350.72V308.48c0-89.6 72.96-162.56 161.92-162.56a162.56 162.56 0 0 1 161.92 162.56v108.16z" p-id="6193" ></path></svg>