<svg t="1589642172693" class="icon" viewBox="0 0 1024 1024" version="1.1" xmlns="http://www.w3.org/2000/svg" p-id="8447" width="200" height="200"><path d="M176 416q48 0.992 79.488 32.512T288 528q-0.992 48-32.512 79.488T176 640q-48-0.992-79.488-32.512T64 528q0.992-48 32.512-79.488T176 416zM512 416q48 0.992 79.488 32.512T624 528q-0.992 48-32.512 79.488T512 640q-48-0.992-79.488-32.512T400 528q0.992-48 32.512-79.488T512 416z m336 0q48 0.992 79.488 32.512T960 528q-0.992 48-32.512 79.488T848 640q-48-0.992-79.488-32.512T736 528q0.992-48 32.512-79.488T848 416z" p-id="8448"></path></svg>