
<?xml version="1.0" standalone="no"?>
<!DOCTYPE svg PUBLIC "-//W3C//DTD SVG 1.1//EN" "http://www.w3.org/Graphics/SVG/1.1/DTD/svg11.dtd">
<svg t="1583665285684" class="icon" viewBox="0 0 1024 1024" version="1.1" xmlns="http://www.w3.org/2000/svg" p-id="867" xmlns:xlink="http://www.w3.org/1999/xlink" width="200" height="200">
<defs>
<style type="text/css"></style>
</defs>
<path d="M446.6 925c-46.1 0-90.9-9-133.1-26.9-40.7-17.2-77.3-41.9-108.6-73.2-31.4-31.4-56-67.9-73.2-108.6-17.8-42.2-26.9-86.9-26.9-133.1s9-90.9 26.9-133.1c17.2-40.7 41.9-77.3 73.2-108.6s67.9-56 108.6-73.2c42.2-17.8 86.9-26.9 133.1-26.9s90.9 9 133.1 26.9c40.7 17.2 77.3 41.9 108.6 73.2 31.4 31.4 56 67.9 73.2 108.6 17.8 42.2 26.9 86.9 26.9 133.1s-9 90.9-26.9 133.1c-17.2 40.7-41.9 77.3-73.2 108.6-31.4 31.4-67.9 56-108.6 73.2C537.5 916 492.8 925 446.6 925z m0-623.6c-75.3 0-146 29.3-199.3 82.5-53.2 53.2-82.5 124-82.5 199.3s29.3 146 82.5 199.3c53.2 53.2 124 82.5 199.3 82.5s146-29.3 199.3-82.5c53.2-53.2 82.5-124 82.5-199.3s-29.3-146-82.5-199.3c-53.2-53.2-124-82.5-199.3-82.5zM889.2 409.1c-16.6 0-30-13.4-30-30V159H635.8c-16.6 0-30-13.4-30-30s13.4-30 30-30h253.4c16.6 0 30 13.4 30 30v250.1c0 16.6-13.5 30-30 30z" fill="#09DBB9" p-id="868">
</path>
<path d="M624.868 347.5l243.185-239.872 42.132 42.714L667 390.213z" fill="#09DBB9" p-id="869"></path>
</svg>