<?xml version="1.0" standalone="no"?><!DOCTYPE svg PUBLIC "-//W3C//DTD SVG 1.1//EN" "http://www.w3.org/Graphics/SVG/1.1/DTD/svg11.dtd"><svg t="1590071177487" class="icon" viewBox="0 0 1024 1024" version="1.1" xmlns="http://www.w3.org/2000/svg" p-id="3930" xmlns:xlink="http://www.w3.org/1999/xlink" width="200" height="200"><defs><style type="text/css"></style></defs><path d="M802.005333 752.32l137.322667 137.344-60.330667 60.330667-137.344-137.322667-60.757333-60.778667a322.944 322.944 0 0 0 32.170667-28.16c124.949333-124.970667 124.949333-327.594667 0-452.565333-124.970667-124.949333-327.594667-124.949333-452.565334 0-124.949333 124.970667-124.949333 327.594667 0 452.565333 86.826667 86.826667 211.157333 113.322667 320.853334 79.488l66.368 66.346667c-148.074667 64-326.549333 35.498667-447.552-85.504-158.293333-158.293333-158.293333-414.933333 0-573.226667 158.293333-158.293333 414.933333-158.293333 573.226666 0 148.096 148.096 157.653333 382.293333 28.586667 541.482667z" p-id="3931" fill="#EE9CA7"></path></svg>