<?xml version="1.0" standalone="no"?><!DOCTYPE svg PUBLIC "-//W3C//DTD SVG 1.1//EN" "http://www.w3.org/Graphics/SVG/1.1/DTD/svg11.dtd"><svg t="1589635661054" class="icon" viewBox="0 0 1024 1024" version="1.1" xmlns="http://www.w3.org/2000/svg" p-id="3098" xmlns:xlink="http://www.w3.org/1999/xlink" width="200" height="200"><defs><style type="text/css"></style></defs><path d="M904.571429 443.428571q35.428571 0 59.142857 23.142858T987.428571 524.571429q0 55.428571-53.142857 74.285714l-98.285714 33.714286 32 95.428571q4 12 4 26.857143 0 33.714286-24 58.285714t-57.714286 24.571429q-26.857143 0-48.857143-15.428572t-30.571428-41.142857l-31.428572-94.285714-177.142857 60.571428 31.428572 93.714286q4.571429 13.714286 4.571428 26.857143 0 33.714286-24 58.285714t-58.285714 24.571429q-26.857143 0-48.571429-15.428572t-30.285714-41.142857l-31.428571-93.142857-87.428572 30.285714q-16.571429 5.142857-28.571428 5.142858-34.857143 0-58-22.857143T148.571429 756q0-26.857143 15.714285-48.571429t40.857143-30.285714l89.142857-30.285714-60-178.857143-89.142857 30.857143q-14.857143 4.571429-27.428571 4.571428-34.285714 0-57.714286-23.142857T36.571429 422.857143q0-26.857143 15.714285-48.571429t40.857143-30.285714l89.714286-30.285714-30.285714-90.857143q-4.571429-13.714286-4.571429-26.857143 0-34.285714 24-58.571429T230.285714 113.142857q26.857143 0 48.571429 15.428572t30.285714 41.142857l30.857143 91.428571 177.142857-60-30.857143-91.428571q-4.571429-13.714286-4.571428-26.857143 0-33.714286 24.285714-58.285714T564 0q26.857143 0 48.857143 15.714286T643.428571 56.571429l30.285715 92 92.571428-31.428572q12-3.428571 24.571429-3.428571 34.285714 0 58.571428 22.571428T873.714286 192.571429q0 25.714286-17.142857 46.571428t-42.285715 29.428572l-89.714285 30.857142 60 180.571429 93.714285-32q13.714286-4.571429 26.285715-4.571429z m-453.714286 149.714286l177.142857-60-60-180-177.142857 61.142857z" p-id="3099"></path></svg>