<svg t="1589636218250" class="icon" viewBox="0 0 1024 1024" version="1.1" xmlns="http://www.w3.org/2000/svg" p-id="2120" width="200" height="200"><path d="M512 733.866667c-3.413333 0-6.826667 0-10.24-3.413334l-170.666667-102.4c-6.826667-3.413333-6.826667-10.24-6.826666-13.653333v-204.8c0-6.826667 3.413333-10.24 6.826666-13.653333l170.666667-102.4c6.826667-3.413333 13.653333-3.413333 17.066667 0l170.666666 102.4c6.826667 3.413333 6.826667 10.24 6.826667 13.653333v204.8c0 6.826667-3.413333 10.24-6.826667 13.653333l-170.666666 102.4c0 3.413333-3.413333 3.413333-6.826667 3.413334z m-153.6-129.706667l153.6 92.16 153.6-92.16v-184.32L512 327.68l-153.6 92.16v184.32z" fill="" p-id="2121"></path><path d="M512 597.333333c-10.24 0-17.066667-6.826667-17.066667-17.066666v-136.533334c0-10.24 6.826667-17.066667 17.066667-17.066666s17.066667 6.826667 17.066667 17.066666v136.533334c0 10.24-6.826667 17.066667-17.066667 17.066666z" fill="" p-id="2122"></path><path d="M580.266667 563.2c-3.413333 0-6.826667 0-6.826667-3.413333l-136.533333-68.266667c-6.826667-3.413333-10.24-13.653333-6.826667-23.893333 3.413333-6.826667 13.653333-10.24 23.893333-6.826667l136.533334 68.266667c6.826667 3.413333 10.24 13.653333 6.826666 23.893333-3.413333 6.826667-10.24 10.24-17.066666 10.24z" fill="" p-id="2123"></path><path d="M443.733333 563.2c-6.826667 0-13.653333-3.413333-13.653333-10.24-3.413333-6.826667 0-17.066667 6.826667-23.893333l136.533333-68.266667c6.826667-3.413333 17.066667 0 23.893333 6.826667 3.413333 6.826667 0 17.066667-6.826666 23.893333l-136.533334 68.266667c-3.413333 3.413333-6.826667 3.413333-10.24 3.413333zM512 320.853333c-10.24 0-17.066667-6.826667-17.066667-17.066666V34.133333c0-10.24 6.826667-17.066667 17.066667-17.066666s17.066667 6.826667 17.066667 17.066666v269.653334c0 6.826667-6.826667 17.066667-17.066667 17.066666z" fill="" p-id="2124"></path><path d="M512 153.6c-3.413333 0-6.826667 0-10.24-3.413333l-102.4-68.266667c-6.826667-6.826667-10.24-17.066667-3.413333-23.893333s17.066667-10.24 23.893333-3.413334L512 116.053333l92.16-61.44c6.826667-6.826667 17.066667-3.413333 23.893333 3.413334 6.826667 6.826667 3.413333 17.066667-3.413333 23.893333l-102.4 68.266667c-3.413333 3.413333-6.826667 3.413333-10.24 3.413333z" fill="" p-id="2125"></path><path d="M512 256c-3.413333 0-6.826667 0-10.24-3.413333l-102.4-68.266667c-6.826667-6.826667-10.24-17.066667-3.413333-23.893333s17.066667-10.24 23.893333-3.413334L512 218.453333l92.16-61.44c6.826667-6.826667 17.066667-3.413333 23.893333 3.413334 6.826667 6.826667 3.413333 17.066667-3.413333 23.893333l-102.4 68.266667c-3.413333 3.413333-6.826667 3.413333-10.24 3.413333z" fill="" p-id="2126"></path><path d="M512 1006.933333c-10.24 0-17.066667-6.826667-17.066667-17.066666v-269.653334c0-10.24 6.826667-17.066667 17.066667-17.066666s17.066667 6.826667 17.066667 17.066666V989.866667c0 10.24-6.826667 17.066667-17.066667 17.066666z" fill="" p-id="2127"></path><path d="M614.4 972.8c-3.413333 0-6.826667 0-10.24-3.413333L512 907.946667l-92.16 61.44c-6.826667 6.826667-17.066667 3.413333-23.893333-3.413334s-3.413333-17.066667 3.413333-23.893333l102.4-68.266667c6.826667-3.413333 13.653333-3.413333 20.48 0l102.4 68.266667c6.826667 6.826667 10.24 17.066667 3.413333 23.893333-3.413333 3.413333-6.826667 6.826667-13.653333 6.826667z" fill="" p-id="2128"></path><path d="M614.4 870.4c-3.413333 0-6.826667 0-10.24-3.413333L512 805.546667l-92.16 61.44c-6.826667 6.826667-17.066667 3.413333-23.893333-3.413334s-3.413333-17.066667 3.413333-23.893333l102.4-68.266667c6.826667-3.413333 13.653333-3.413333 20.48 0l102.4 68.266667c6.826667 6.826667 10.24 17.066667 3.413333 23.893333-3.413333 3.413333-6.826667 6.826667-13.653333 6.826667z" fill="" p-id="2129"></path><path d="M331.093333 423.253333c-3.413333 0-6.826667 0-10.24-3.413333L88.746667 286.72c-6.826667-3.413333-10.24-13.653333-6.826667-20.48 3.413333-6.826667 13.653333-10.24 23.893333-6.826667l232.106667 133.12c6.826667 3.413333 10.24 13.653333 6.826667 23.893334-3.413333 3.413333-6.826667 6.826667-13.653334 6.826666z" fill="" p-id="2130"></path><path d="M75.093333 395.946667c-6.826667 0-13.653333-3.413333-13.653333-10.24-3.413333-6.826667 0-17.066667 6.826667-23.893334l102.4-47.786666-10.24-112.64c0-10.24 6.826667-17.066667 17.066666-17.066667s17.066667 6.826667 17.066667 17.066667L204.8 324.266667c0 6.826667-3.413333 13.653333-10.24 17.066666l-109.226667 54.613334h-10.24z" fill="" p-id="2131"></path><path d="M163.84 447.146667c-6.826667 0-13.653333-3.413333-13.653333-10.24-3.413333-6.826667 0-17.066667 6.826666-23.893334l98.986667-47.786666-6.826667-112.64c0-10.24 6.826667-17.066667 17.066667-17.066667s17.066667 6.826667 17.066667 17.066667l10.24 122.88c0 6.826667-3.413333 13.653333-10.24 17.066666L174.08 443.733333c-3.413333 3.413333-6.826667 3.413333-10.24 3.413334z" fill="" p-id="2132"></path><path d="M925.013333 768c-3.413333 0-6.826667 0-10.24-3.413333L682.666667 631.466667c-6.826667-3.413333-10.24-13.653333-6.826667-23.893334 3.413333-6.826667 13.653333-10.24 23.893333-6.826666l232.106667 133.12c6.826667 3.413333 10.24 13.653333 6.826667 23.893333 0 6.826667-6.826667 10.24-13.653334 10.24z" fill="" p-id="2133"></path><path d="M846.506667 839.68c-10.24 0-17.066667-6.826667-17.066667-17.066667l-10.24-122.88c0-6.826667 3.413333-13.653333 10.24-17.066666l109.226667-54.613334c6.826667-3.413333 17.066667 0 23.893333 6.826667 3.413333 6.826667 0 17.066667-6.826667 23.893333l-102.4 51.2 6.826667 112.64c3.413333 6.826667-3.413333 17.066667-13.653333 17.066667z" fill="" p-id="2134"></path><path d="M757.76 788.48c-10.24 0-17.066667-6.826667-17.066667-17.066667l-10.24-122.88c0-6.826667 3.413333-13.653333 10.24-17.066666l109.226667-54.613334c6.826667-3.413333 17.066667 0 23.893333 6.826667 3.413333 6.826667 0 17.066667-6.826666 23.893333l-98.986667 47.786667 6.826667 112.64c0 10.24-6.826667 20.48-17.066667 20.48z" fill="" p-id="2135"></path><path d="M98.986667 768c-6.826667 0-10.24-3.413333-13.653334-10.24-3.413333-6.826667-3.413333-17.066667 6.826667-23.893333l232.106667-133.12c6.826667-3.413333 17.066667-3.413333 23.893333 6.826666 3.413333 6.826667 3.413333 17.066667-6.826667 23.893334l-232.106666 133.12c-6.826667 3.413333-6.826667 3.413333-10.24 3.413333z" fill="" p-id="2136"></path><path d="M177.493333 839.68c-10.24 0-17.066667-10.24-17.066666-17.066667l10.24-112.64-102.4-47.786666c-6.826667-3.413333-10.24-13.653333-6.826667-23.893334 3.413333-6.826667 13.653333-10.24 23.893333-6.826666l109.226667 54.613333c6.826667 0 10.24 6.826667 10.24 13.653333l-6.826667 122.88c-3.413333 10.24-10.24 17.066667-20.48 17.066667z" fill="" p-id="2137"></path><path d="M266.24 788.48c-10.24 0-17.066667-10.24-17.066667-17.066667l6.826667-112.64-98.986667-47.786666c-6.826667-3.413333-10.24-13.653333-6.826666-23.893334 3.413333-6.826667 13.653333-10.24 23.893333-6.826666l109.226667 54.613333c6.826667 3.413333 10.24 10.24 10.24 17.066667l-6.826667 122.88c-3.413333 6.826667-10.24 13.653333-20.48 13.653333z" fill="" p-id="2138"></path><path d="M692.906667 423.253333c-6.826667 0-10.24-3.413333-13.653334-10.24-3.413333-6.826667-3.413333-17.066667 6.826667-23.893333l232.106667-133.12c6.826667-3.413333 17.066667-3.413333 23.893333 6.826667 3.413333 6.826667 3.413333 17.066667-6.826667 23.893333l-232.106666 133.12c-3.413333 3.413333-6.826667 3.413333-10.24 3.413333z" fill="" p-id="2139"></path><path d="M948.906667 395.946667c-3.413333 0-6.826667 0-6.826667-3.413334l-109.226667-54.613333c-10.24 0-13.653333-6.826667-13.653333-13.653333l6.826667-122.88c0-10.24 10.24-17.066667 17.066666-17.066667 10.24 0 17.066667 10.24 17.066667 17.066667L853.333333 314.026667l98.986667 47.786666c6.826667 3.413333 10.24 13.653333 6.826667 23.893334 0 6.826667-6.826667 10.24-10.24 10.24z" fill="" p-id="2140"></path><path d="M860.16 447.146667c-3.413333 0-6.826667 0-6.826667-3.413334l-109.226666-54.613333c-6.826667-3.413333-10.24-10.24-10.24-17.066667l6.826666-122.88c0-10.24 10.24-17.066667 17.066667-17.066666 10.24 0 17.066667 10.24 17.066667 17.066666l-6.826667 112.64 98.986667 47.786667c6.826667 3.413333 10.24 13.653333 6.826666 23.893333-3.413333 10.24-10.24 13.653333-13.653333 13.653334z" fill="" p-id="2141"></path></svg>