<?xml version="1.0" standalone="no"?><!DOCTYPE svg PUBLIC "-//W3C//DTD SVG 1.1//EN" "http://www.w3.org/Graphics/SVG/1.1/DTD/svg11.dtd"><svg t="1589635628038" class="icon" viewBox="0 0 1024 1024" version="1.1" xmlns="http://www.w3.org/2000/svg" p-id="2354" xmlns:xlink="http://www.w3.org/1999/xlink" width="200" height="200"><defs><style type="text/css"></style></defs><path d="M960 64c-166.6 22-333.6 44-500 66-184 25-326.6 173.4-338 360-6.6 111 36 219 115.6 296.4L64 960c166.6-22 333-44 499.6-66 183.6-25 326.6-173.6 337.4-359.6 7-111-36-219-115.4-296.4L960 64z m-159.4 464.6c-8.4 159-148 278.4-305.6 269-159-9.4-281.4-142-272.6-302 9-158.4 148.6-278.6 306-269 158.6 9.4 281 142 272.2 302z" fill="" p-id="2355"></path></svg>