<?xml version="1.0" standalone="no"?><!DOCTYPE svg PUBLIC "-//W3C//DTD SVG 1.1//EN" "http://www.w3.org/Graphics/SVG/1.1/DTD/svg11.dtd"><svg t="1589635593442" class="icon" viewBox="0 0 1097 1024" version="1.1" xmlns="http://www.w3.org/2000/svg" p-id="1736" xmlns:xlink="http://www.w3.org/1999/xlink" width="214.2578125" height="200"><defs><style type="text/css"></style></defs><path d="M1024 713.142857v-548.571428c0-9.728-8.557714-18.285714-18.285714-18.285715h-914.285715c-9.728 0-18.285714 8.557714-18.285714 18.285715v548.571428c0 9.728 8.557714 18.285714 18.285714 18.285714h914.285715c9.728 0 18.285714-8.557714 18.285714-18.285714z m73.142857-548.571428v548.571428c0 50.285714-41.142857 91.428571-91.428571 91.428572H585.142857v73.142857h201.142857c10.276571 0 18.285714 8.009143 18.285715 18.285714v36.571429c0 10.276571-8.009143 18.285714-18.285715 18.285714h-475.428571a18.066286 18.066286 0 0 1-18.285714-18.285714v-36.571429c0-10.276571 8.009143-18.285714 18.285714-18.285714H512v-73.142857H91.428571A91.684571 91.684571 0 0 1 0 713.142857v-548.571428C0 114.285714 41.142857 73.142857 91.428571 73.142857h914.285715C1056 73.142857 1097.142857 114.285714 1097.142857 164.571429z" fill="" p-id="1737"></path></svg>