<svg t="1589798676841" class="icon" viewBox="0 0 1024 1024" version="1.1" xmlns="http://www.w3.org/2000/svg" p-id="1961" width="200" height="200"><path d="M512 64C264.96 64 64 264.96 64 512s200.96 448 448 448 448-200.96 448-448S759.04 64 512 64zM512 895.712c-211.584 0-383.712-172.16-383.712-383.712C128.288 300.416 300.416 128.288 512 128.288c211.552 0 383.712 172.128 383.712 383.712C895.712 723.552 723.552 895.712 512 895.712z" p-id="1962"></path><path d="M671.968 512 512 512 512 288.064c0-17.76-14.24-32.128-32-32.128s-32 14.4-32 32.128L448 544c0 17.76 14.272 32 32 32l191.968 0c17.76 0 32.128-14.24 32.128-32S689.728 512 671.968 512z" p-id="1963"></path></svg>