<svg t="1589796781989" class="icon" viewBox="0 0 1024 1024" version="1.1" xmlns="http://www.w3.org/2000/svg" p-id="1171" width="200" height="200"><path d="M919.84 314.912l-246.816-241.984a32.96 32.96 0 0 0-22.752-9.152 32 32 0 0 0-22.56 9.632l-459.2 470.4a32.224 32.224 0 0 0-8.576 16.448L97.984 890.912a31.904 31.904 0 0 0 38.432 37.12l292.448-65.216a31.904 31.904 0 0 0 16.064-9.024l475.584-493.824a32 32 0 0 0-0.672-45.056zM433.792 773.088l-122.528-121.472a32 32 0 1 0-45.056 45.44l112.384 111.392-208.768 46.592 51.264-273.472L651.136 141.088l201.248 197.312-418.592 434.688z" p-id="1172"></path></svg>