<?xml version="1.0" standalone="no"?><!DOCTYPE svg PUBLIC "-//W3C//DTD SVG 1.1//EN" "http://www.w3.org/Graphics/SVG/1.1/DTD/svg11.dtd"><svg t="1589635537482" class="icon" viewBox="0 0 1024 1024" version="1.1" xmlns="http://www.w3.org/2000/svg" p-id="1087" xmlns:xlink="http://www.w3.org/1999/xlink" width="200" height="200"><defs><style type="text/css"></style></defs><path d="M102.4 409.6C46.08 409.6 0 455.68 0 512s46.08 102.4 102.4 102.4 102.4-46.08 102.4-102.4C204.8 455.68 158.72 409.6 102.4 409.6zM921.6 409.6c-56.32 0-102.4 46.08-102.4 102.4s46.08 102.4 102.4 102.4S1024 568.32 1024 512C1024 455.68 977.92 409.6 921.6 409.6zM512 409.6c-56.32 0-102.4 46.08-102.4 102.4s46.08 102.4 102.4 102.4 102.4-46.08 102.4-102.4C614.4 455.68 568.32 409.6 512 409.6z" p-id="1088" fill="#666666"></path></svg>